<svg width="1000" height="1000" viewBox="0 0 1000 1000" fill="none" xmlns="http://www.w3.org/2000/svg">
<g clip-path="url(#clip0)">
<rect width="1000" height="1000" fill="black"/>
<path d="M-8.03301 16.967L64.4114 -2.44444L117.444 50.5886L98.033 123.033L25.5886 142.444L-27.4444 89.4114L-8.03301 16.967Z" fill="url(#paint0_linear)"/>
<path d="M121.967 16.967L194.411 -2.44444L247.444 50.5886L228.033 123.033L155.589 142.444L102.556 89.4114L121.967 16.967Z" fill="url(#paint1_linear)"/>
<path d="M251.967 16.967L324.411 -2.44444L377.444 50.5886L358.033 123.033L285.589 142.444L232.556 89.4114L251.967 16.967Z" fill="url(#paint2_linear)"/>
<path d="M381.967 16.967L454.411 -2.44444L507.444 50.5886L488.033 123.033L415.589 142.444L362.556 89.4114L381.967 16.967Z" fill="url(#paint3_linear)"/>
<path d="M511.967 16.967L584.411 -2.44444L637.444 50.5886L618.033 123.033L545.589 142.444L492.556 89.4114L511.967 16.967Z" fill="url(#paint4_linear)"/>
<path d="M641.967 16.967L714.411 -2.44444L767.444 50.5886L748.033 123.033L675.589 142.444L622.556 89.4114L641.967 16.967Z" fill="url(#paint5_linear)"/>
<path d="M771.967 16.967L844.411 -2.44444L897.444 50.5886L878.033 123.033L805.589 142.444L752.556 89.4114L771.967 16.967Z" fill="url(#paint6_linear)"/>
<path d="M901.967 16.967L974.411 -2.44444L1027.44 50.5886L1008.03 123.033L935.589 142.444L882.556 89.4114L901.967 16.967Z" fill="url(#paint7_linear)"/>
<path d="M56.967 129.967L129.411 110.556L182.444 163.589L163.033 236.033L90.5886 255.444L37.5556 202.411L56.967 129.967Z" fill="url(#paint8_linear)"/>
<path d="M186.967 129.967L259.411 110.556L312.444 163.589L293.033 236.033L220.589 255.444L167.556 202.411L186.967 129.967Z" fill="url(#paint9_linear)"/>
<path d="M316.967 129.967L389.411 110.556L442.444 163.589L423.033 236.033L350.589 255.444L297.556 202.411L316.967 129.967Z" fill="url(#paint10_linear)"/>
<path d="M446.967 129.967L519.411 110.556L572.444 163.589L553.033 236.033L480.589 255.444L427.556 202.411L446.967 129.967Z" fill="url(#paint11_linear)"/>
<path d="M576.967 129.967L649.411 110.556L702.444 163.589L683.033 236.033L610.589 255.444L557.556 202.411L576.967 129.967Z" fill="url(#paint12_linear)"/>
<path d="M706.967 129.967L779.411 110.556L832.444 163.589L813.033 236.033L740.589 255.444L687.556 202.411L706.967 129.967Z" fill="url(#paint13_linear)"/>
<path d="M836.967 129.967L909.411 110.556L962.444 163.589L943.033 236.033L870.589 255.444L817.556 202.411L836.967 129.967Z" fill="url(#paint14_linear)"/>
<path d="M966.967 129.967L1039.41 110.556L1092.44 163.589L1073.03 236.033L1000.59 255.444L947.556 202.411L966.967 129.967Z" fill="url(#paint15_linear)"/>
<path d="M-8.03301 242.967L64.4114 223.556L117.444 276.589L98.033 349.033L25.5886 368.444L-27.4444 315.411L-8.03301 242.967Z" fill="url(#paint16_linear)"/>
<path d="M121.967 242.967L194.411 223.556L247.444 276.589L228.033 349.033L155.589 368.444L102.556 315.411L121.967 242.967Z" fill="url(#paint17_linear)"/>
<path d="M251.967 242.967L324.411 223.556L377.444 276.589L358.033 349.033L285.589 368.444L232.556 315.411L251.967 242.967Z" fill="url(#paint18_linear)"/>
<path d="M381.967 242.967L454.411 223.556L507.444 276.589L488.033 349.033L415.589 368.444L362.556 315.411L381.967 242.967Z" fill="url(#paint19_linear)"/>
<path d="M511.967 242.967L584.411 223.556L637.444 276.589L618.033 349.033L545.589 368.444L492.556 315.411L511.967 242.967Z" fill="url(#paint20_linear)"/>
<path d="M641.967 242.967L714.411 223.556L767.444 276.589L748.033 349.033L675.589 368.444L622.556 315.411L641.967 242.967Z" fill="url(#paint21_linear)"/>
<path d="M771.967 242.967L844.411 223.556L897.444 276.589L878.033 349.033L805.589 368.444L752.556 315.411L771.967 242.967Z" fill="url(#paint22_linear)"/>
<path d="M901.967 242.967L974.411 223.556L1027.44 276.589L1008.03 349.033L935.589 368.444L882.556 315.411L901.967 242.967Z" fill="url(#paint23_linear)"/>
<path d="M56.967 355.967L129.411 336.556L182.444 389.589L163.033 462.033L90.5886 481.444L37.5556 428.411L56.967 355.967Z" fill="url(#paint24_linear)"/>
<path d="M186.967 355.967L259.411 336.556L312.444 389.589L293.033 462.033L220.589 481.444L167.556 428.411L186.967 355.967Z" fill="url(#paint25_linear)"/>
<path d="M316.967 355.967L389.411 336.556L442.444 389.589L423.033 462.033L350.589 481.444L297.556 428.411L316.967 355.967Z" fill="url(#paint26_linear)"/>
<path d="M446.967 355.967L519.411 336.556L572.444 389.589L553.033 462.033L480.589 481.444L427.556 428.411L446.967 355.967Z" fill="url(#paint27_linear)"/>
<path d="M576.967 355.967L649.411 336.556L702.444 389.589L683.033 462.033L610.589 481.444L557.556 428.411L576.967 355.967Z" fill="url(#paint28_linear)"/>
<path d="M706.967 355.967L779.411 336.556L832.444 389.589L813.033 462.033L740.589 481.444L687.556 428.411L706.967 355.967Z" fill="url(#paint29_linear)"/>
<path d="M836.967 355.967L909.411 336.556L962.444 389.589L943.033 462.033L870.589 481.444L817.556 428.411L836.967 355.967Z" fill="url(#paint30_linear)"/>
<path d="M966.967 355.967L1039.41 336.556L1092.44 389.589L1073.03 462.033L1000.59 481.444L947.556 428.411L966.967 355.967Z" fill="url(#paint31_linear)"/>
<path d="M-8.03301 468.967L64.4114 449.556L117.444 502.589L98.033 575.033L25.5886 594.444L-27.4444 541.411L-8.03301 468.967Z" fill="url(#paint32_linear)"/>
<path d="M121.967 468.967L194.411 449.556L247.444 502.589L228.033 575.033L155.589 594.444L102.556 541.411L121.967 468.967Z" fill="url(#paint33_linear)"/>
<path d="M251.967 468.967L324.411 449.556L377.444 502.589L358.033 575.033L285.589 594.444L232.556 541.411L251.967 468.967Z" fill="url(#paint34_linear)"/>
<path d="M381.967 468.967L454.411 449.556L507.444 502.589L488.033 575.033L415.589 594.444L362.556 541.411L381.967 468.967Z" fill="url(#paint35_linear)"/>
<path d="M511.967 468.967L584.411 449.556L637.444 502.589L618.033 575.033L545.589 594.444L492.556 541.411L511.967 468.967Z" fill="url(#paint36_linear)"/>
<path d="M641.967 468.967L714.411 449.556L767.444 502.589L748.033 575.033L675.589 594.444L622.556 541.411L641.967 468.967Z" fill="url(#paint37_linear)"/>
<path d="M771.967 468.967L844.411 449.556L897.444 502.589L878.033 575.033L805.589 594.444L752.556 541.411L771.967 468.967Z" fill="url(#paint38_linear)"/>
<path d="M901.967 468.967L974.411 449.556L1027.44 502.589L1008.03 575.033L935.589 594.444L882.556 541.411L901.967 468.967Z" fill="url(#paint39_linear)"/>
<path d="M56.967 581.967L129.411 562.556L182.444 615.589L163.033 688.033L90.5886 707.444L37.5556 654.411L56.967 581.967Z" fill="url(#paint40_linear)"/>
<path d="M186.967 581.967L259.411 562.556L312.444 615.589L293.033 688.033L220.589 707.444L167.556 654.411L186.967 581.967Z" fill="url(#paint41_linear)"/>
<path d="M316.967 581.967L389.411 562.556L442.444 615.589L423.033 688.033L350.589 707.444L297.556 654.411L316.967 581.967Z" fill="url(#paint42_linear)"/>
<path d="M446.967 581.967L519.411 562.556L572.444 615.589L553.033 688.033L480.589 707.444L427.556 654.411L446.967 581.967Z" fill="url(#paint43_linear)"/>
<path d="M576.967 581.967L649.411 562.556L702.444 615.589L683.033 688.033L610.589 707.444L557.556 654.411L576.967 581.967Z" fill="url(#paint44_linear)"/>
<path d="M706.967 581.967L779.411 562.556L832.444 615.589L813.033 688.033L740.589 707.444L687.556 654.411L706.967 581.967Z" fill="url(#paint45_linear)"/>
<path d="M836.967 581.967L909.411 562.556L962.444 615.589L943.033 688.033L870.589 707.444L817.556 654.411L836.967 581.967Z" fill="url(#paint46_linear)"/>
<path d="M966.967 581.967L1039.41 562.556L1092.44 615.589L1073.03 688.033L1000.59 707.444L947.556 654.411L966.967 581.967Z" fill="url(#paint47_linear)"/>
<path d="M-8.03301 694.967L64.4114 675.556L117.444 728.589L98.033 801.033L25.5886 820.444L-27.4444 767.411L-8.03301 694.967Z" fill="url(#paint48_linear)"/>
<path d="M121.967 694.967L194.411 675.556L247.444 728.589L228.033 801.033L155.589 820.444L102.556 767.411L121.967 694.967Z" fill="url(#paint49_linear)"/>
<path d="M251.967 694.967L324.411 675.556L377.444 728.589L358.033 801.033L285.589 820.444L232.556 767.411L251.967 694.967Z" fill="url(#paint50_linear)"/>
<path d="M381.967 694.967L454.411 675.556L507.444 728.589L488.033 801.033L415.589 820.444L362.556 767.411L381.967 694.967Z" fill="url(#paint51_linear)"/>
<path d="M511.967 694.967L584.411 675.556L637.444 728.589L618.033 801.033L545.589 820.444L492.556 767.411L511.967 694.967Z" fill="url(#paint52_linear)"/>
<path d="M641.967 694.967L714.411 675.556L767.444 728.589L748.033 801.033L675.589 820.444L622.556 767.411L641.967 694.967Z" fill="url(#paint53_linear)"/>
<path d="M771.967 694.967L844.411 675.556L897.444 728.589L878.033 801.033L805.589 820.444L752.556 767.411L771.967 694.967Z" fill="url(#paint54_linear)"/>
<path d="M901.967 694.967L974.411 675.556L1027.44 728.589L1008.03 801.033L935.589 820.444L882.556 767.411L901.967 694.967Z" fill="url(#paint55_linear)"/>
<path d="M56.967 807.967L129.411 788.556L182.444 841.589L163.033 914.033L90.5886 933.444L37.5556 880.411L56.967 807.967Z" fill="url(#paint56_linear)"/>
<path d="M186.967 807.967L259.411 788.556L312.444 841.589L293.033 914.033L220.589 933.444L167.556 880.411L186.967 807.967Z" fill="url(#paint57_linear)"/>
<path d="M316.967 807.967L389.411 788.556L442.444 841.589L423.033 914.033L350.589 933.444L297.556 880.411L316.967 807.967Z" fill="url(#paint58_linear)"/>
<path d="M446.967 807.967L519.411 788.556L572.444 841.589L553.033 914.033L480.589 933.444L427.556 880.411L446.967 807.967Z" fill="url(#paint59_linear)"/>
<path d="M576.967 807.967L649.411 788.556L702.444 841.589L683.033 914.033L610.589 933.444L557.556 880.411L576.967 807.967Z" fill="url(#paint60_linear)"/>
<path d="M706.967 807.967L779.411 788.556L832.444 841.589L813.033 914.033L740.589 933.444L687.556 880.411L706.967 807.967Z" fill="url(#paint61_linear)"/>
<path d="M836.967 807.967L909.411 788.556L962.444 841.589L943.033 914.033L870.589 933.444L817.556 880.411L836.967 807.967Z" fill="url(#paint62_linear)"/>
<path d="M966.967 807.967L1039.41 788.556L1092.44 841.589L1073.03 914.033L1000.59 933.444L947.556 880.411L966.967 807.967Z" fill="url(#paint63_linear)"/>
<path d="M-8.03301 920.967L64.4114 901.556L117.444 954.589L98.033 1027.03L25.5886 1046.44L-27.4444 993.411L-8.03301 920.967Z" fill="url(#paint64_linear)"/>
<path d="M121.967 920.967L194.411 901.556L247.444 954.589L228.033 1027.03L155.589 1046.44L102.556 993.411L121.967 920.967Z" fill="url(#paint65_linear)"/>
<path d="M251.967 920.967L324.411 901.556L377.444 954.589L358.033 1027.03L285.589 1046.44L232.556 993.411L251.967 920.967Z" fill="url(#paint66_linear)"/>
<path d="M381.967 920.967L454.411 901.556L507.444 954.589L488.033 1027.03L415.589 1046.44L362.556 993.411L381.967 920.967Z" fill="url(#paint67_linear)"/>
<path d="M511.967 920.967L584.411 901.556L637.444 954.589L618.033 1027.03L545.589 1046.44L492.556 993.411L511.967 920.967Z" fill="url(#paint68_linear)"/>
<path d="M641.967 920.967L714.411 901.556L767.444 954.589L748.033 1027.03L675.589 1046.44L622.556 993.411L641.967 920.967Z" fill="url(#paint69_linear)"/>
<path d="M771.967 920.967L844.411 901.556L897.444 954.589L878.033 1027.03L805.589 1046.44L752.556 993.411L771.967 920.967Z" fill="url(#paint70_linear)"/>
<path d="M901.967 920.967L974.411 901.556L1027.44 954.589L1008.03 1027.03L935.589 1046.44L882.556 993.411L901.967 920.967Z" fill="url(#paint71_linear)"/>
<path d="M56.967 1033.97L129.411 1014.56L182.444 1067.59L163.033 1140.03L90.5886 1159.44L37.5556 1106.41L56.967 1033.97Z" fill="url(#paint72_linear)"/>
<path d="M186.967 1033.97L259.411 1014.56L312.444 1067.59L293.033 1140.03L220.589 1159.44L167.556 1106.41L186.967 1033.97Z" fill="url(#paint73_linear)"/>
<path d="M316.967 1033.97L389.411 1014.56L442.444 1067.59L423.033 1140.03L350.589 1159.44L297.556 1106.41L316.967 1033.97Z" fill="url(#paint74_linear)"/>
<path d="M446.967 1033.97L519.411 1014.56L572.444 1067.59L553.033 1140.03L480.589 1159.44L427.556 1106.41L446.967 1033.97Z" fill="url(#paint75_linear)"/>
<path d="M576.967 1033.97L649.411 1014.56L702.444 1067.59L683.033 1140.03L610.589 1159.44L557.556 1106.41L576.967 1033.97Z" fill="url(#paint76_linear)"/>
<path d="M706.967 1033.97L779.411 1014.56L832.444 1067.59L813.033 1140.03L740.589 1159.44L687.556 1106.41L706.967 1033.97Z" fill="url(#paint77_linear)"/>
<path d="M836.967 1033.97L909.411 1014.56L962.444 1067.59L943.033 1140.03L870.589 1159.44L817.556 1106.41L836.967 1033.97Z" fill="url(#paint78_linear)"/>
<path d="M966.967 1033.97L1039.41 1014.56L1092.44 1067.59L1073.03 1140.03L1000.59 1159.44L947.556 1106.41L966.967 1033.97Z" fill="url(#paint79_linear)"/>
<path d="M-73.033 129.967L-0.588574 110.556L52.4444 163.589L33.033 236.033L-39.4114 255.444L-92.4444 202.411L-73.033 129.967Z" fill="url(#paint80_linear)"/>
<path d="M-73.033 355.967L-0.588574 336.556L52.4444 389.589L33.033 462.033L-39.4114 481.444L-92.4444 428.411L-73.033 355.967Z" fill="url(#paint81_linear)"/>
<path d="M-73.033 581.967L-0.588574 562.556L52.4444 615.589L33.033 688.033L-39.4114 707.444L-92.4444 654.411L-73.033 581.967Z" fill="url(#paint82_linear)"/>
<path d="M-73.033 807.967L-0.588574 788.556L52.4444 841.589L33.033 914.033L-39.4114 933.444L-92.4444 880.411L-73.033 807.967Z" fill="url(#paint83_linear)"/>
<path d="M-73.033 -96.033L-0.588574 -115.444L52.4444 -62.4114L33.033 10.033L-39.4114 29.4444L-92.4444 -23.5886L-73.033 -96.033Z" fill="url(#paint84_linear)"/>
<path d="M56.967 -96.033L129.411 -115.444L182.444 -62.4114L163.033 10.033L90.5886 29.4444L37.5556 -23.5886L56.967 -96.033Z" fill="url(#paint85_linear)"/>
<path d="M186.967 -96.033L259.411 -115.444L312.444 -62.4114L293.033 10.033L220.589 29.4444L167.556 -23.5886L186.967 -96.033Z" fill="url(#paint86_linear)"/>
<path d="M316.967 -96.033L389.411 -115.444L442.444 -62.4114L423.033 10.033L350.589 29.4444L297.556 -23.5886L316.967 -96.033Z" fill="url(#paint87_linear)"/>
<path d="M446.967 -96.033L519.411 -115.444L572.444 -62.4114L553.033 10.033L480.589 29.4444L427.556 -23.5886L446.967 -96.033Z" fill="url(#paint88_linear)"/>
<path d="M576.967 -96.033L649.411 -115.444L702.444 -62.4114L683.033 10.033L610.589 29.4444L557.556 -23.5886L576.967 -96.033Z" fill="url(#paint89_linear)"/>
<path d="M706.967 -96.033L779.411 -115.444L832.444 -62.4114L813.033 10.033L740.589 29.4444L687.556 -23.5886L706.967 -96.033Z" fill="url(#paint90_linear)"/>
<path d="M836.967 -96.033L909.411 -115.444L962.444 -62.4114L943.033 10.033L870.589 29.4444L817.556 -23.5886L836.967 -96.033Z" fill="url(#paint91_linear)"/>
<path d="M952.967 -104.033L1025.41 -123.444L1078.44 -70.4114L1059.03 2.03301L986.589 21.4444L933.556 -31.5886L952.967 -104.033Z" fill="url(#paint92_linear)"/>
<path d="M33.033 62.033L105.477 42.6216L158.51 95.6546L139.099 168.099L66.6546 187.51L13.6216 134.477L33.033 62.033Z" fill="url(#paint93_linear)"/>
<path d="M163.033 62.033L235.477 42.6216L288.51 95.6546L269.099 168.099L196.655 187.51L143.622 134.477L163.033 62.033Z" fill="url(#paint94_linear)"/>
<path d="M293.033 62.033L365.477 42.6216L418.51 95.6546L399.099 168.099L326.655 187.51L273.622 134.477L293.033 62.033Z" fill="url(#paint95_linear)"/>
<path d="M423.033 62.033L495.477 42.6216L548.51 95.6546L529.099 168.099L456.655 187.51L403.622 134.477L423.033 62.033Z" fill="url(#paint96_linear)"/>
<path d="M553.033 62.033L625.477 42.6216L678.51 95.6546L659.099 168.099L586.655 187.51L533.622 134.477L553.033 62.033Z" fill="url(#paint97_linear)"/>
<path d="M683.033 62.033L755.477 42.6216L808.51 95.6546L789.099 168.099L716.655 187.51L663.622 134.477L683.033 62.033Z" fill="url(#paint98_linear)"/>
<path d="M813.033 62.033L885.477 42.6216L938.51 95.6546L919.099 168.099L846.655 187.51L793.622 134.477L813.033 62.033Z" fill="url(#paint99_linear)"/>
<path d="M943.033 62.033L1015.48 42.6216L1068.51 95.6546L1049.1 168.099L976.655 187.51L923.622 134.477L943.033 62.033Z" fill="url(#paint100_linear)"/>
<path d="M98.033 175.033L170.477 155.622L223.51 208.655L204.099 281.099L131.655 300.51L78.6216 247.477L98.033 175.033Z" fill="url(#paint101_linear)"/>
<path d="M228.033 175.033L300.477 155.622L353.51 208.655L334.099 281.099L261.655 300.51L208.622 247.477L228.033 175.033Z" fill="url(#paint102_linear)"/>
<path d="M358.033 175.033L430.477 155.622L483.51 208.655L464.099 281.099L391.655 300.51L338.622 247.477L358.033 175.033Z" fill="url(#paint103_linear)"/>
<path d="M488.033 175.033L560.477 155.622L613.51 208.655L594.099 281.099L521.655 300.51L468.622 247.477L488.033 175.033Z" fill="url(#paint104_linear)"/>
<path d="M618.033 175.033L690.477 155.622L743.51 208.655L724.099 281.099L651.655 300.51L598.622 247.477L618.033 175.033Z" fill="url(#paint105_linear)"/>
<path d="M748.033 175.033L820.477 155.622L873.51 208.655L854.099 281.099L781.655 300.51L728.622 247.477L748.033 175.033Z" fill="url(#paint106_linear)"/>
<path d="M878.033 175.033L950.477 155.622L1003.51 208.655L984.099 281.099L911.655 300.51L858.622 247.477L878.033 175.033Z" fill="url(#paint107_linear)"/>
<path d="M1008.03 175.033L1080.48 155.622L1133.51 208.655L1114.1 281.099L1041.65 300.51L988.622 247.477L1008.03 175.033Z" fill="url(#paint108_linear)"/>
<path d="M33.033 288.033L105.477 268.622L158.51 321.655L139.099 394.099L66.6546 413.51L13.6216 360.477L33.033 288.033Z" fill="url(#paint109_linear)"/>
<path d="M163.033 288.033L235.477 268.622L288.51 321.655L269.099 394.099L196.655 413.51L143.622 360.477L163.033 288.033Z" fill="url(#paint110_linear)"/>
<path d="M293.033 288.033L365.477 268.622L418.51 321.655L399.099 394.099L326.655 413.51L273.622 360.477L293.033 288.033Z" fill="url(#paint111_linear)"/>
<path d="M423.033 288.033L495.477 268.622L548.51 321.655L529.099 394.099L456.655 413.51L403.622 360.477L423.033 288.033Z" fill="url(#paint112_linear)"/>
<path d="M553.033 288.033L625.477 268.622L678.51 321.655L659.099 394.099L586.655 413.51L533.622 360.477L553.033 288.033Z" fill="url(#paint113_linear)"/>
<path d="M683.033 288.033L755.477 268.622L808.51 321.655L789.099 394.099L716.655 413.51L663.622 360.477L683.033 288.033Z" fill="url(#paint114_linear)"/>
<path d="M813.033 288.033L885.477 268.622L938.51 321.655L919.099 394.099L846.655 413.51L793.622 360.477L813.033 288.033Z" fill="url(#paint115_linear)"/>
<path d="M943.033 288.033L1015.48 268.622L1068.51 321.655L1049.1 394.099L976.655 413.51L923.622 360.477L943.033 288.033Z" fill="url(#paint116_linear)"/>
<path d="M98.033 401.033L170.477 381.622L223.51 434.655L204.099 507.099L131.655 526.51L78.6216 473.477L98.033 401.033Z" fill="url(#paint117_linear)"/>
<path d="M228.033 401.033L300.477 381.622L353.51 434.655L334.099 507.099L261.655 526.51L208.622 473.477L228.033 401.033Z" fill="url(#paint118_linear)"/>
<path d="M358.033 401.033L430.477 381.622L483.51 434.655L464.099 507.099L391.655 526.51L338.622 473.477L358.033 401.033Z" fill="url(#paint119_linear)"/>
<path d="M488.033 401.033L560.477 381.622L613.51 434.655L594.099 507.099L521.655 526.51L468.622 473.477L488.033 401.033Z" fill="url(#paint120_linear)"/>
<path d="M618.033 401.033L690.477 381.622L743.51 434.655L724.099 507.099L651.655 526.51L598.622 473.477L618.033 401.033Z" fill="url(#paint121_linear)"/>
<path d="M748.033 401.033L820.477 381.622L873.51 434.655L854.099 507.099L781.655 526.51L728.622 473.477L748.033 401.033Z" fill="url(#paint122_linear)"/>
<path d="M878.033 401.033L950.477 381.622L1003.51 434.655L984.099 507.099L911.655 526.51L858.622 473.477L878.033 401.033Z" fill="url(#paint123_linear)"/>
<path d="M1008.03 401.033L1080.48 381.622L1133.51 434.655L1114.1 507.099L1041.65 526.51L988.622 473.477L1008.03 401.033Z" fill="url(#paint124_linear)"/>
<path d="M33.033 514.033L105.477 494.622L158.51 547.655L139.099 620.099L66.6546 639.51L13.6216 586.477L33.033 514.033Z" fill="url(#paint125_linear)"/>
<path d="M163.033 514.033L235.477 494.622L288.51 547.655L269.099 620.099L196.655 639.51L143.622 586.477L163.033 514.033Z" fill="url(#paint126_linear)"/>
<path d="M293.033 514.033L365.477 494.622L418.51 547.655L399.099 620.099L326.655 639.51L273.622 586.477L293.033 514.033Z" fill="url(#paint127_linear)"/>
<path d="M423.033 514.033L495.477 494.622L548.51 547.655L529.099 620.099L456.655 639.51L403.622 586.477L423.033 514.033Z" fill="url(#paint128_linear)"/>
<path d="M553.033 514.033L625.477 494.622L678.51 547.655L659.099 620.099L586.655 639.51L533.622 586.477L553.033 514.033Z" fill="url(#paint129_linear)"/>
<path d="M683.033 514.033L755.477 494.622L808.51 547.655L789.099 620.099L716.655 639.51L663.622 586.477L683.033 514.033Z" fill="url(#paint130_linear)"/>
<path d="M813.033 514.033L885.477 494.622L938.51 547.655L919.099 620.099L846.655 639.51L793.622 586.477L813.033 514.033Z" fill="url(#paint131_linear)"/>
<path d="M943.033 514.033L1015.48 494.622L1068.51 547.655L1049.1 620.099L976.655 639.51L923.622 586.477L943.033 514.033Z" fill="url(#paint132_linear)"/>
<path d="M98.033 627.033L170.477 607.622L223.51 660.655L204.099 733.099L131.655 752.51L78.6216 699.477L98.033 627.033Z" fill="url(#paint133_linear)"/>
<path d="M228.033 627.033L300.477 607.622L353.51 660.655L334.099 733.099L261.655 752.51L208.622 699.477L228.033 627.033Z" fill="url(#paint134_linear)"/>
<path d="M358.033 627.033L430.477 607.622L483.51 660.655L464.099 733.099L391.655 752.51L338.622 699.477L358.033 627.033Z" fill="url(#paint135_linear)"/>
<path d="M488.033 627.033L560.477 607.622L613.51 660.655L594.099 733.099L521.655 752.51L468.622 699.477L488.033 627.033Z" fill="url(#paint136_linear)"/>
<path d="M618.033 627.033L690.477 607.622L743.51 660.655L724.099 733.099L651.655 752.51L598.622 699.477L618.033 627.033Z" fill="url(#paint137_linear)"/>
<path d="M748.033 627.033L820.477 607.622L873.51 660.655L854.099 733.099L781.655 752.51L728.622 699.477L748.033 627.033Z" fill="url(#paint138_linear)"/>
<path d="M878.033 627.033L950.477 607.622L1003.51 660.655L984.099 733.099L911.655 752.51L858.622 699.477L878.033 627.033Z" fill="url(#paint139_linear)"/>
<path d="M1008.03 627.033L1080.48 607.622L1133.51 660.655L1114.1 733.099L1041.65 752.51L988.622 699.477L1008.03 627.033Z" fill="url(#paint140_linear)"/>
<path d="M33.033 740.033L105.477 720.622L158.51 773.655L139.099 846.099L66.6546 865.51L13.6216 812.477L33.033 740.033Z" fill="url(#paint141_linear)"/>
<path d="M163.033 740.033L235.477 720.622L288.51 773.655L269.099 846.099L196.655 865.51L143.622 812.477L163.033 740.033Z" fill="url(#paint142_linear)"/>
<path d="M293.033 740.033L365.477 720.622L418.51 773.655L399.099 846.099L326.655 865.51L273.622 812.477L293.033 740.033Z" fill="url(#paint143_linear)"/>
<path d="M423.033 740.033L495.477 720.622L548.51 773.655L529.099 846.099L456.655 865.51L403.622 812.477L423.033 740.033Z" fill="url(#paint144_linear)"/>
<path d="M553.033 740.033L625.477 720.622L678.51 773.655L659.099 846.099L586.655 865.51L533.622 812.477L553.033 740.033Z" fill="url(#paint145_linear)"/>
<path d="M683.033 740.033L755.477 720.622L808.51 773.655L789.099 846.099L716.655 865.51L663.622 812.477L683.033 740.033Z" fill="url(#paint146_linear)"/>
<path d="M813.033 740.033L885.477 720.622L938.51 773.655L919.099 846.099L846.655 865.51L793.622 812.477L813.033 740.033Z" fill="url(#paint147_linear)"/>
<path d="M943.033 740.033L1015.48 720.622L1068.51 773.655L1049.1 846.099L976.655 865.51L923.622 812.477L943.033 740.033Z" fill="url(#paint148_linear)"/>
<path d="M98.033 853.033L170.477 833.622L223.51 886.655L204.099 959.099L131.655 978.51L78.6216 925.477L98.033 853.033Z" fill="url(#paint149_linear)"/>
<path d="M228.033 853.033L300.477 833.622L353.51 886.655L334.099 959.099L261.655 978.51L208.622 925.477L228.033 853.033Z" fill="url(#paint150_linear)"/>
<path d="M358.033 853.033L430.477 833.622L483.51 886.655L464.099 959.099L391.655 978.51L338.622 925.477L358.033 853.033Z" fill="url(#paint151_linear)"/>
<path d="M488.033 853.033L560.477 833.622L613.51 886.655L594.099 959.099L521.655 978.51L468.622 925.477L488.033 853.033Z" fill="url(#paint152_linear)"/>
<path d="M618.033 853.033L690.477 833.622L743.51 886.655L724.099 959.099L651.655 978.51L598.622 925.477L618.033 853.033Z" fill="url(#paint153_linear)"/>
<path d="M748.033 853.033L820.477 833.622L873.51 886.655L854.099 959.099L781.655 978.51L728.622 925.477L748.033 853.033Z" fill="url(#paint154_linear)"/>
<path d="M878.033 853.033L950.477 833.622L1003.51 886.655L984.099 959.099L911.655 978.51L858.622 925.477L878.033 853.033Z" fill="url(#paint155_linear)"/>
<path d="M1008.03 853.033L1080.48 833.622L1133.51 886.655L1114.1 959.099L1041.65 978.51L988.622 925.477L1008.03 853.033Z" fill="url(#paint156_linear)"/>
<path d="M33.033 966.033L105.477 946.622L158.51 999.655L139.099 1072.1L66.6546 1091.51L13.6216 1038.48L33.033 966.033Z" fill="url(#paint157_linear)"/>
<path d="M163.033 966.033L235.477 946.622L288.51 999.655L269.099 1072.1L196.655 1091.51L143.622 1038.48L163.033 966.033Z" fill="url(#paint158_linear)"/>
<path d="M293.033 966.033L365.477 946.622L418.51 999.655L399.099 1072.1L326.655 1091.51L273.622 1038.48L293.033 966.033Z" fill="url(#paint159_linear)"/>
<path d="M423.033 966.033L495.477 946.622L548.51 999.655L529.099 1072.1L456.655 1091.51L403.622 1038.48L423.033 966.033Z" fill="url(#paint160_linear)"/>
<path d="M553.033 966.033L625.477 946.622L678.51 999.655L659.099 1072.1L586.655 1091.51L533.622 1038.48L553.033 966.033Z" fill="url(#paint161_linear)"/>
<path d="M683.033 966.033L755.477 946.622L808.51 999.655L789.099 1072.1L716.655 1091.51L663.622 1038.48L683.033 966.033Z" fill="url(#paint162_linear)"/>
<path d="M813.033 966.033L885.477 946.622L938.51 999.655L919.099 1072.1L846.655 1091.51L793.622 1038.48L813.033 966.033Z" fill="url(#paint163_linear)"/>
<path d="M943.033 966.033L1015.48 946.622L1068.51 999.655L1049.1 1072.1L976.655 1091.51L923.622 1038.48L943.033 966.033Z" fill="url(#paint164_linear)"/>
<path d="M-31.967 175.033L40.4774 155.622L93.5105 208.655L74.099 281.099L1.65459 300.51L-51.3784 247.477L-31.967 175.033Z" fill="url(#paint165_linear)"/>
<path d="M-31.967 401.033L40.4774 381.622L93.5105 434.655L74.099 507.099L1.65459 526.51L-51.3784 473.477L-31.967 401.033Z" fill="url(#paint166_linear)"/>
<path d="M-31.967 627.033L40.4774 607.622L93.5105 660.655L74.099 733.099L1.65459 752.51L-51.3784 699.477L-31.967 627.033Z" fill="url(#paint167_linear)"/>
<path d="M-31.967 853.033L40.4774 833.622L93.5105 886.655L74.099 959.099L1.65459 978.51L-51.3784 925.477L-31.967 853.033Z" fill="url(#paint168_linear)"/>
<path d="M-31.967 -50.967L40.4774 -70.3784L93.5105 -17.3454L74.099 55.099L1.65459 74.5105L-51.3784 21.4775L-31.967 -50.967Z" fill="url(#paint169_linear)"/>
<path d="M98.033 -50.967L170.477 -70.3784L223.51 -17.3454L204.099 55.099L131.655 74.5105L78.6216 21.4775L98.033 -50.967Z" fill="url(#paint170_linear)"/>
<path d="M228.033 -50.967L300.477 -70.3784L353.51 -17.3454L334.099 55.099L261.655 74.5105L208.622 21.4775L228.033 -50.967Z" fill="url(#paint171_linear)"/>
<path d="M358.033 -50.967L430.477 -70.3784L483.51 -17.3454L464.099 55.099L391.655 74.5105L338.622 21.4775L358.033 -50.967Z" fill="url(#paint172_linear)"/>
<path d="M488.033 -50.967L560.477 -70.3784L613.51 -17.3454L594.099 55.099L521.655 74.5105L468.622 21.4775L488.033 -50.967Z" fill="url(#paint173_linear)"/>
<path d="M618.033 -50.967L690.477 -70.3784L743.51 -17.3454L724.099 55.099L651.655 74.5105L598.622 21.4775L618.033 -50.967Z" fill="url(#paint174_linear)"/>
<path d="M748.033 -50.967L820.477 -70.3784L873.51 -17.3454L854.099 55.099L781.655 74.5105L728.622 21.4775L748.033 -50.967Z" fill="url(#paint175_linear)"/>
<path d="M878.033 -50.967L950.477 -70.3784L1003.51 -17.3454L984.099 55.099L911.655 74.5105L858.622 21.4775L878.033 -50.967Z" fill="url(#paint176_linear)"/>
<path d="M994.033 -58.967L1066.48 -78.3784L1119.51 -25.3454L1100.1 47.099L1027.65 66.5105L974.622 13.4775L994.033 -58.967Z" fill="url(#paint177_linear)"/>
<path d="M183.087 456.486L183.648 467.941C186.119 463.674 189.339 460.342 193.307 457.946C197.35 455.55 202.216 454.315 207.906 454.24C219.062 454.24 226.511 458.583 230.255 467.268C232.651 463.374 235.795 460.267 239.688 457.946C243.657 455.55 248.448 454.315 254.063 454.24C262.973 454.24 269.824 456.973 274.615 462.438C279.407 467.904 281.803 476.177 281.803 487.258V578H262.037V487.033C262.037 476.851 257.358 471.797 247.999 471.872C245.528 471.872 243.395 472.209 241.598 472.883C239.801 473.557 238.303 474.493 237.105 475.69C235.908 476.813 234.972 478.161 234.298 479.733C233.624 481.231 233.175 482.803 232.95 484.45V578H213.185V486.921C213.185 482.054 212.099 478.311 209.928 475.69C207.757 473.07 204.312 471.797 199.596 471.872C195.253 471.872 191.884 472.733 189.488 474.455C187.092 476.177 185.333 478.461 184.21 481.306V578H164.444V456.486H183.087ZM391.524 578C390.701 576.428 390.027 574.481 389.503 572.16C389.054 569.764 388.717 567.294 388.492 564.748C386.396 566.844 384.037 568.828 381.417 570.7C378.871 572.572 376.026 574.219 372.882 575.642C369.812 577.064 366.518 578.187 362.999 579.011C359.48 579.834 355.737 580.246 351.769 580.246C345.33 580.246 339.49 579.31 334.249 577.438C329.083 575.567 324.666 573.059 320.997 569.914C317.403 566.695 314.596 562.914 312.574 558.571C310.628 554.154 309.654 549.4 309.654 544.309C309.654 537.645 310.965 531.805 313.585 526.789C316.28 521.773 320.061 517.618 324.928 514.323C329.794 510.954 335.634 508.446 342.447 506.799C349.335 505.152 357.009 504.328 365.47 504.328H388.155V494.782C388.155 491.114 387.481 487.819 386.134 484.899C384.786 481.979 382.877 479.509 380.406 477.487C377.936 475.391 374.903 473.781 371.31 472.658C367.791 471.535 363.823 470.974 359.405 470.974C355.287 470.974 351.581 471.498 348.287 472.546C345.068 473.594 342.335 474.979 340.089 476.701C337.843 478.423 336.083 480.482 334.811 482.878C333.613 485.199 333.014 487.632 333.014 490.178H312.125C312.2 485.76 313.323 481.418 315.494 477.15C317.74 472.883 320.922 469.064 325.04 465.695C329.233 462.251 334.286 459.481 340.201 457.385C346.191 455.288 352.966 454.24 360.528 454.24C367.416 454.24 373.818 455.101 379.732 456.823C385.647 458.47 390.738 461.016 395.006 464.46C399.348 467.829 402.755 472.059 405.226 477.15C407.696 482.242 408.932 488.194 408.932 495.007V551.496C408.932 555.539 409.306 559.844 410.055 564.411C410.803 568.903 411.852 572.834 413.199 576.203V578H391.524ZM354.801 562.165C358.844 562.165 362.625 561.641 366.144 560.593C369.662 559.545 372.844 558.16 375.689 556.438C378.609 554.715 381.118 552.769 383.214 550.598C385.31 548.352 386.957 546.031 388.155 543.635V519.04H368.839C356.71 519.04 347.276 520.837 340.538 524.431C333.8 528.024 330.431 533.677 330.431 541.389C330.431 544.383 330.917 547.154 331.891 549.699C332.939 552.245 334.474 554.453 336.495 556.325C338.517 558.122 341.062 559.545 344.132 560.593C347.201 561.641 350.758 562.165 354.801 562.165ZM486.197 521.286L470.924 535.998V578H450.035V405.5H470.924V511.066L484.513 496.467L524.381 456.486H549.649L500.46 507.136L557.174 578H530.782L486.197 521.286ZM667.569 454.24C669.516 454.24 671.537 454.315 673.634 454.465C675.73 454.54 677.714 454.727 679.586 455.026C681.533 455.251 683.292 455.55 684.864 455.925C686.511 456.299 687.859 456.711 688.907 457.16L686.1 477.487C682.057 476.589 678.201 475.952 674.532 475.578C670.938 475.129 667.158 474.904 663.189 474.904C653.456 474.904 645.558 477.113 639.493 481.53C633.504 485.948 629.086 492.124 626.241 500.061V578H605.353V456.486H625.118L626.129 475.803C631.07 469.139 636.985 463.898 643.873 460.08C650.836 456.187 658.735 454.24 667.569 454.24ZM729.337 405.5H791.441V560.031H831.085V578H729.337V560.031H770.665V423.581H729.337V405.5Z" fill="black" fill-opacity="0.26"/>
<path d="M183.087 441.486L183.648 452.941C186.119 448.674 189.339 445.342 193.307 442.946C197.35 440.55 202.216 439.315 207.906 439.24C219.062 439.24 226.511 443.583 230.255 452.268C232.651 448.374 235.795 445.267 239.688 442.946C243.657 440.55 248.448 439.315 254.063 439.24C262.973 439.24 269.824 441.973 274.615 447.438C279.407 452.904 281.803 461.177 281.803 472.258V563H262.037V472.033C262.037 461.851 257.358 456.797 247.999 456.872C245.528 456.872 243.395 457.209 241.598 457.883C239.801 458.557 238.303 459.493 237.105 460.69C235.908 461.813 234.972 463.161 234.298 464.733C233.624 466.231 233.175 467.803 232.95 469.45V563H213.185V471.921C213.185 467.054 212.099 463.311 209.928 460.69C207.757 458.07 204.312 456.797 199.596 456.872C195.253 456.872 191.884 457.733 189.488 459.455C187.092 461.177 185.333 463.461 184.21 466.306V563H164.444V441.486H183.087ZM391.524 563C390.701 561.428 390.027 559.481 389.503 557.16C389.054 554.764 388.717 552.294 388.492 549.748C386.396 551.844 384.037 553.828 381.417 555.7C378.871 557.572 376.026 559.219 372.882 560.642C369.812 562.064 366.518 563.187 362.999 564.011C359.48 564.834 355.737 565.246 351.769 565.246C345.33 565.246 339.49 564.31 334.249 562.438C329.083 560.567 324.666 558.059 320.997 554.914C317.403 551.695 314.596 547.914 312.574 543.571C310.628 539.154 309.654 534.4 309.654 529.309C309.654 522.645 310.965 516.805 313.585 511.789C316.28 506.773 320.061 502.618 324.928 499.323C329.794 495.954 335.634 493.446 342.447 491.799C349.335 490.152 357.009 489.328 365.47 489.328H388.155V479.782C388.155 476.114 387.481 472.819 386.134 469.899C384.786 466.979 382.877 464.509 380.406 462.487C377.936 460.391 374.903 458.781 371.31 457.658C367.791 456.535 363.823 455.974 359.405 455.974C355.287 455.974 351.581 456.498 348.287 457.546C345.068 458.594 342.335 459.979 340.089 461.701C337.843 463.423 336.083 465.482 334.811 467.878C333.613 470.199 333.014 472.632 333.014 475.178H312.125C312.2 470.76 313.323 466.418 315.494 462.15C317.74 457.883 320.922 454.064 325.04 450.695C329.233 447.251 334.286 444.481 340.201 442.385C346.191 440.288 352.966 439.24 360.528 439.24C367.416 439.24 373.818 440.101 379.732 441.823C385.647 443.47 390.738 446.016 395.006 449.46C399.348 452.829 402.755 457.059 405.226 462.15C407.696 467.242 408.932 473.194 408.932 480.007V536.496C408.932 540.539 409.306 544.844 410.055 549.411C410.803 553.903 411.852 557.834 413.199 561.203V563H391.524ZM354.801 547.165C358.844 547.165 362.625 546.641 366.144 545.593C369.662 544.545 372.844 543.16 375.689 541.438C378.609 539.715 381.118 537.769 383.214 535.598C385.31 533.352 386.957 531.031 388.155 528.635V504.04H368.839C356.71 504.04 347.276 505.837 340.538 509.431C333.8 513.024 330.431 518.677 330.431 526.389C330.431 529.383 330.917 532.154 331.891 534.699C332.939 537.245 334.474 539.453 336.495 541.325C338.517 543.122 341.062 544.545 344.132 545.593C347.201 546.641 350.758 547.165 354.801 547.165ZM486.197 506.286L470.924 520.998V563H450.035V390.5H470.924V496.066L484.513 481.467L524.381 441.486H549.649L500.46 492.136L557.174 563H530.782L486.197 506.286ZM667.569 439.24C669.516 439.24 671.537 439.315 673.634 439.465C675.73 439.54 677.714 439.727 679.586 440.026C681.533 440.251 683.292 440.55 684.864 440.925C686.511 441.299 687.859 441.711 688.907 442.16L686.1 462.487C682.057 461.589 678.201 460.952 674.532 460.578C670.938 460.129 667.158 459.904 663.189 459.904C653.456 459.904 645.558 462.113 639.493 466.53C633.504 470.948 629.086 477.124 626.241 485.061V563H605.353V441.486H625.118L626.129 460.803C631.07 454.139 636.985 448.898 643.873 445.08C650.836 441.187 658.735 439.24 667.569 439.24ZM729.337 390.5H791.441V545.031H831.085V563H729.337V545.031H770.665V408.581H729.337V390.5Z" fill="url(#paint178_linear)"/>
</g>
<defs>
<linearGradient id="paint0_linear" x1="-8.03301" y1="16.967" x2="98.033" y2="123.033" gradientUnits="userSpaceOnUse">
<stop stop-color="#00C2FF"/>
<stop offset="1" stop-color="#3E2A2A" stop-opacity="0.57"/>
</linearGradient>
<linearGradient id="paint1_linear" x1="121.967" y1="16.967" x2="228.033" y2="123.033" gradientUnits="userSpaceOnUse">
<stop stop-color="#00C2FF"/>
<stop offset="1" stop-color="#3E2A2A" stop-opacity="0.57"/>
</linearGradient>
<linearGradient id="paint2_linear" x1="251.967" y1="16.967" x2="358.033" y2="123.033" gradientUnits="userSpaceOnUse">
<stop stop-color="#00C2FF"/>
<stop offset="1" stop-color="#3E2A2A" stop-opacity="0.57"/>
</linearGradient>
<linearGradient id="paint3_linear" x1="381.967" y1="16.967" x2="488.033" y2="123.033" gradientUnits="userSpaceOnUse">
<stop stop-color="#00C2FF"/>
<stop offset="1" stop-color="#3E2A2A" stop-opacity="0.57"/>
</linearGradient>
<linearGradient id="paint4_linear" x1="511.967" y1="16.967" x2="618.033" y2="123.033" gradientUnits="userSpaceOnUse">
<stop stop-color="#00C2FF"/>
<stop offset="1" stop-color="#3E2A2A" stop-opacity="0.57"/>
</linearGradient>
<linearGradient id="paint5_linear" x1="641.967" y1="16.967" x2="748.033" y2="123.033" gradientUnits="userSpaceOnUse">
<stop stop-color="#00C2FF"/>
<stop offset="1" stop-color="#3E2A2A" stop-opacity="0.57"/>
</linearGradient>
<linearGradient id="paint6_linear" x1="771.967" y1="16.967" x2="878.033" y2="123.033" gradientUnits="userSpaceOnUse">
<stop stop-color="#00C2FF"/>
<stop offset="1" stop-color="#3E2A2A" stop-opacity="0.57"/>
</linearGradient>
<linearGradient id="paint7_linear" x1="901.967" y1="16.967" x2="1008.03" y2="123.033" gradientUnits="userSpaceOnUse">
<stop stop-color="#00C2FF"/>
<stop offset="1" stop-color="#3E2A2A" stop-opacity="0.57"/>
</linearGradient>
<linearGradient id="paint8_linear" x1="56.967" y1="129.967" x2="163.033" y2="236.033" gradientUnits="userSpaceOnUse">
<stop stop-color="#00C2FF"/>
<stop offset="1" stop-color="#3E2A2A" stop-opacity="0.57"/>
</linearGradient>
<linearGradient id="paint9_linear" x1="186.967" y1="129.967" x2="293.033" y2="236.033" gradientUnits="userSpaceOnUse">
<stop stop-color="#00C2FF"/>
<stop offset="1" stop-color="#3E2A2A" stop-opacity="0.57"/>
</linearGradient>
<linearGradient id="paint10_linear" x1="316.967" y1="129.967" x2="423.033" y2="236.033" gradientUnits="userSpaceOnUse">
<stop stop-color="#00C2FF"/>
<stop offset="1" stop-color="#3E2A2A" stop-opacity="0.57"/>
</linearGradient>
<linearGradient id="paint11_linear" x1="446.967" y1="129.967" x2="553.033" y2="236.033" gradientUnits="userSpaceOnUse">
<stop stop-color="#00C2FF"/>
<stop offset="1" stop-color="#3E2A2A" stop-opacity="0.57"/>
</linearGradient>
<linearGradient id="paint12_linear" x1="576.967" y1="129.967" x2="683.033" y2="236.033" gradientUnits="userSpaceOnUse">
<stop stop-color="#00C2FF"/>
<stop offset="1" stop-color="#3E2A2A" stop-opacity="0.57"/>
</linearGradient>
<linearGradient id="paint13_linear" x1="706.967" y1="129.967" x2="813.033" y2="236.033" gradientUnits="userSpaceOnUse">
<stop stop-color="#00C2FF"/>
<stop offset="1" stop-color="#3E2A2A" stop-opacity="0.57"/>
</linearGradient>
<linearGradient id="paint14_linear" x1="836.967" y1="129.967" x2="943.033" y2="236.033" gradientUnits="userSpaceOnUse">
<stop stop-color="#00C2FF"/>
<stop offset="1" stop-color="#3E2A2A" stop-opacity="0.57"/>
</linearGradient>
<linearGradient id="paint15_linear" x1="966.967" y1="129.967" x2="1073.03" y2="236.033" gradientUnits="userSpaceOnUse">
<stop stop-color="#00C2FF"/>
<stop offset="1" stop-color="#3E2A2A" stop-opacity="0.57"/>
</linearGradient>
<linearGradient id="paint16_linear" x1="-8.03301" y1="242.967" x2="98.033" y2="349.033" gradientUnits="userSpaceOnUse">
<stop stop-color="#00C2FF"/>
<stop offset="1" stop-color="#3E2A2A" stop-opacity="0.57"/>
</linearGradient>
<linearGradient id="paint17_linear" x1="121.967" y1="242.967" x2="228.033" y2="349.033" gradientUnits="userSpaceOnUse">
<stop stop-color="#00C2FF"/>
<stop offset="1" stop-color="#3E2A2A" stop-opacity="0.57"/>
</linearGradient>
<linearGradient id="paint18_linear" x1="251.967" y1="242.967" x2="358.033" y2="349.033" gradientUnits="userSpaceOnUse">
<stop stop-color="#00C2FF"/>
<stop offset="1" stop-color="#3E2A2A" stop-opacity="0.57"/>
</linearGradient>
<linearGradient id="paint19_linear" x1="381.967" y1="242.967" x2="488.033" y2="349.033" gradientUnits="userSpaceOnUse">
<stop stop-color="#00C2FF"/>
<stop offset="1" stop-color="#3E2A2A" stop-opacity="0.57"/>
</linearGradient>
<linearGradient id="paint20_linear" x1="511.967" y1="242.967" x2="618.033" y2="349.033" gradientUnits="userSpaceOnUse">
<stop stop-color="#00C2FF"/>
<stop offset="1" stop-color="#3E2A2A" stop-opacity="0.57"/>
</linearGradient>
<linearGradient id="paint21_linear" x1="641.967" y1="242.967" x2="748.033" y2="349.033" gradientUnits="userSpaceOnUse">
<stop stop-color="#00C2FF"/>
<stop offset="1" stop-color="#3E2A2A" stop-opacity="0.57"/>
</linearGradient>
<linearGradient id="paint22_linear" x1="771.967" y1="242.967" x2="878.033" y2="349.033" gradientUnits="userSpaceOnUse">
<stop stop-color="#00C2FF"/>
<stop offset="1" stop-color="#3E2A2A" stop-opacity="0.57"/>
</linearGradient>
<linearGradient id="paint23_linear" x1="901.967" y1="242.967" x2="1008.03" y2="349.033" gradientUnits="userSpaceOnUse">
<stop stop-color="#00C2FF"/>
<stop offset="1" stop-color="#3E2A2A" stop-opacity="0.57"/>
</linearGradient>
<linearGradient id="paint24_linear" x1="56.967" y1="355.967" x2="163.033" y2="462.033" gradientUnits="userSpaceOnUse">
<stop stop-color="#00C2FF"/>
<stop offset="1" stop-color="#3E2A2A" stop-opacity="0.57"/>
</linearGradient>
<linearGradient id="paint25_linear" x1="186.967" y1="355.967" x2="293.033" y2="462.033" gradientUnits="userSpaceOnUse">
<stop stop-color="#00C2FF"/>
<stop offset="1" stop-color="#3E2A2A" stop-opacity="0.57"/>
</linearGradient>
<linearGradient id="paint26_linear" x1="316.967" y1="355.967" x2="423.033" y2="462.033" gradientUnits="userSpaceOnUse">
<stop stop-color="#00C2FF"/>
<stop offset="1" stop-color="#3E2A2A" stop-opacity="0.57"/>
</linearGradient>
<linearGradient id="paint27_linear" x1="446.967" y1="355.967" x2="553.033" y2="462.033" gradientUnits="userSpaceOnUse">
<stop stop-color="#00C2FF"/>
<stop offset="1" stop-color="#3E2A2A" stop-opacity="0.57"/>
</linearGradient>
<linearGradient id="paint28_linear" x1="576.967" y1="355.967" x2="683.033" y2="462.033" gradientUnits="userSpaceOnUse">
<stop stop-color="#00C2FF"/>
<stop offset="1" stop-color="#3E2A2A" stop-opacity="0.57"/>
</linearGradient>
<linearGradient id="paint29_linear" x1="706.967" y1="355.967" x2="813.033" y2="462.033" gradientUnits="userSpaceOnUse">
<stop stop-color="#00C2FF"/>
<stop offset="1" stop-color="#3E2A2A" stop-opacity="0.57"/>
</linearGradient>
<linearGradient id="paint30_linear" x1="836.967" y1="355.967" x2="943.033" y2="462.033" gradientUnits="userSpaceOnUse">
<stop stop-color="#00C2FF"/>
<stop offset="1" stop-color="#3E2A2A" stop-opacity="0.57"/>
</linearGradient>
<linearGradient id="paint31_linear" x1="966.967" y1="355.967" x2="1073.03" y2="462.033" gradientUnits="userSpaceOnUse">
<stop stop-color="#00C2FF"/>
<stop offset="1" stop-color="#3E2A2A" stop-opacity="0.57"/>
</linearGradient>
<linearGradient id="paint32_linear" x1="-8.03301" y1="468.967" x2="98.033" y2="575.033" gradientUnits="userSpaceOnUse">
<stop stop-color="#00C2FF"/>
<stop offset="1" stop-color="#3E2A2A" stop-opacity="0.57"/>
</linearGradient>
<linearGradient id="paint33_linear" x1="121.967" y1="468.967" x2="228.033" y2="575.033" gradientUnits="userSpaceOnUse">
<stop stop-color="#00C2FF"/>
<stop offset="1" stop-color="#3E2A2A" stop-opacity="0.57"/>
</linearGradient>
<linearGradient id="paint34_linear" x1="251.967" y1="468.967" x2="358.033" y2="575.033" gradientUnits="userSpaceOnUse">
<stop stop-color="#00C2FF"/>
<stop offset="1" stop-color="#3E2A2A" stop-opacity="0.57"/>
</linearGradient>
<linearGradient id="paint35_linear" x1="381.967" y1="468.967" x2="488.033" y2="575.033" gradientUnits="userSpaceOnUse">
<stop stop-color="#00C2FF"/>
<stop offset="1" stop-color="#3E2A2A" stop-opacity="0.57"/>
</linearGradient>
<linearGradient id="paint36_linear" x1="511.967" y1="468.967" x2="618.033" y2="575.033" gradientUnits="userSpaceOnUse">
<stop stop-color="#00C2FF"/>
<stop offset="1" stop-color="#3E2A2A" stop-opacity="0.57"/>
</linearGradient>
<linearGradient id="paint37_linear" x1="641.967" y1="468.967" x2="748.033" y2="575.033" gradientUnits="userSpaceOnUse">
<stop stop-color="#00C2FF"/>
<stop offset="1" stop-color="#3E2A2A" stop-opacity="0.57"/>
</linearGradient>
<linearGradient id="paint38_linear" x1="771.967" y1="468.967" x2="878.033" y2="575.033" gradientUnits="userSpaceOnUse">
<stop stop-color="#00C2FF"/>
<stop offset="1" stop-color="#3E2A2A" stop-opacity="0.57"/>
</linearGradient>
<linearGradient id="paint39_linear" x1="901.967" y1="468.967" x2="1008.03" y2="575.033" gradientUnits="userSpaceOnUse">
<stop stop-color="#00C2FF"/>
<stop offset="1" stop-color="#3E2A2A" stop-opacity="0.57"/>
</linearGradient>
<linearGradient id="paint40_linear" x1="56.967" y1="581.967" x2="163.033" y2="688.033" gradientUnits="userSpaceOnUse">
<stop stop-color="#00C2FF"/>
<stop offset="1" stop-color="#3E2A2A" stop-opacity="0.57"/>
</linearGradient>
<linearGradient id="paint41_linear" x1="186.967" y1="581.967" x2="293.033" y2="688.033" gradientUnits="userSpaceOnUse">
<stop stop-color="#00C2FF"/>
<stop offset="1" stop-color="#3E2A2A" stop-opacity="0.57"/>
</linearGradient>
<linearGradient id="paint42_linear" x1="316.967" y1="581.967" x2="423.033" y2="688.033" gradientUnits="userSpaceOnUse">
<stop stop-color="#00C2FF"/>
<stop offset="1" stop-color="#3E2A2A" stop-opacity="0.57"/>
</linearGradient>
<linearGradient id="paint43_linear" x1="446.967" y1="581.967" x2="553.033" y2="688.033" gradientUnits="userSpaceOnUse">
<stop stop-color="#00C2FF"/>
<stop offset="1" stop-color="#3E2A2A" stop-opacity="0.57"/>
</linearGradient>
<linearGradient id="paint44_linear" x1="576.967" y1="581.967" x2="683.033" y2="688.033" gradientUnits="userSpaceOnUse">
<stop stop-color="#00C2FF"/>
<stop offset="1" stop-color="#3E2A2A" stop-opacity="0.57"/>
</linearGradient>
<linearGradient id="paint45_linear" x1="706.967" y1="581.967" x2="813.033" y2="688.033" gradientUnits="userSpaceOnUse">
<stop stop-color="#00C2FF"/>
<stop offset="1" stop-color="#3E2A2A" stop-opacity="0.57"/>
</linearGradient>
<linearGradient id="paint46_linear" x1="836.967" y1="581.967" x2="943.033" y2="688.033" gradientUnits="userSpaceOnUse">
<stop stop-color="#00C2FF"/>
<stop offset="1" stop-color="#3E2A2A" stop-opacity="0.57"/>
</linearGradient>
<linearGradient id="paint47_linear" x1="966.967" y1="581.967" x2="1073.03" y2="688.033" gradientUnits="userSpaceOnUse">
<stop stop-color="#00C2FF"/>
<stop offset="1" stop-color="#3E2A2A" stop-opacity="0.57"/>
</linearGradient>
<linearGradient id="paint48_linear" x1="-8.03301" y1="694.967" x2="98.033" y2="801.033" gradientUnits="userSpaceOnUse">
<stop stop-color="#00C2FF"/>
<stop offset="1" stop-color="#3E2A2A" stop-opacity="0.57"/>
</linearGradient>
<linearGradient id="paint49_linear" x1="121.967" y1="694.967" x2="228.033" y2="801.033" gradientUnits="userSpaceOnUse">
<stop stop-color="#00C2FF"/>
<stop offset="1" stop-color="#3E2A2A" stop-opacity="0.57"/>
</linearGradient>
<linearGradient id="paint50_linear" x1="251.967" y1="694.967" x2="358.033" y2="801.033" gradientUnits="userSpaceOnUse">
<stop stop-color="#00C2FF"/>
<stop offset="1" stop-color="#3E2A2A" stop-opacity="0.57"/>
</linearGradient>
<linearGradient id="paint51_linear" x1="381.967" y1="694.967" x2="488.033" y2="801.033" gradientUnits="userSpaceOnUse">
<stop stop-color="#00C2FF"/>
<stop offset="1" stop-color="#3E2A2A" stop-opacity="0.57"/>
</linearGradient>
<linearGradient id="paint52_linear" x1="511.967" y1="694.967" x2="618.033" y2="801.033" gradientUnits="userSpaceOnUse">
<stop stop-color="#00C2FF"/>
<stop offset="1" stop-color="#3E2A2A" stop-opacity="0.57"/>
</linearGradient>
<linearGradient id="paint53_linear" x1="641.967" y1="694.967" x2="748.033" y2="801.033" gradientUnits="userSpaceOnUse">
<stop stop-color="#00C2FF"/>
<stop offset="1" stop-color="#3E2A2A" stop-opacity="0.57"/>
</linearGradient>
<linearGradient id="paint54_linear" x1="771.967" y1="694.967" x2="878.033" y2="801.033" gradientUnits="userSpaceOnUse">
<stop stop-color="#00C2FF"/>
<stop offset="1" stop-color="#3E2A2A" stop-opacity="0.57"/>
</linearGradient>
<linearGradient id="paint55_linear" x1="901.967" y1="694.967" x2="1008.03" y2="801.033" gradientUnits="userSpaceOnUse">
<stop stop-color="#00C2FF"/>
<stop offset="1" stop-color="#3E2A2A" stop-opacity="0.57"/>
</linearGradient>
<linearGradient id="paint56_linear" x1="56.967" y1="807.967" x2="163.033" y2="914.033" gradientUnits="userSpaceOnUse">
<stop stop-color="#00C2FF"/>
<stop offset="1" stop-color="#3E2A2A" stop-opacity="0.57"/>
</linearGradient>
<linearGradient id="paint57_linear" x1="186.967" y1="807.967" x2="293.033" y2="914.033" gradientUnits="userSpaceOnUse">
<stop stop-color="#00C2FF"/>
<stop offset="1" stop-color="#3E2A2A" stop-opacity="0.57"/>
</linearGradient>
<linearGradient id="paint58_linear" x1="316.967" y1="807.967" x2="423.033" y2="914.033" gradientUnits="userSpaceOnUse">
<stop stop-color="#00C2FF"/>
<stop offset="1" stop-color="#3E2A2A" stop-opacity="0.57"/>
</linearGradient>
<linearGradient id="paint59_linear" x1="446.967" y1="807.967" x2="553.033" y2="914.033" gradientUnits="userSpaceOnUse">
<stop stop-color="#00C2FF"/>
<stop offset="1" stop-color="#3E2A2A" stop-opacity="0.57"/>
</linearGradient>
<linearGradient id="paint60_linear" x1="576.967" y1="807.967" x2="683.033" y2="914.033" gradientUnits="userSpaceOnUse">
<stop stop-color="#00C2FF"/>
<stop offset="1" stop-color="#3E2A2A" stop-opacity="0.57"/>
</linearGradient>
<linearGradient id="paint61_linear" x1="706.967" y1="807.967" x2="813.033" y2="914.033" gradientUnits="userSpaceOnUse">
<stop stop-color="#00C2FF"/>
<stop offset="1" stop-color="#3E2A2A" stop-opacity="0.57"/>
</linearGradient>
<linearGradient id="paint62_linear" x1="836.967" y1="807.967" x2="943.033" y2="914.033" gradientUnits="userSpaceOnUse">
<stop stop-color="#00C2FF"/>
<stop offset="1" stop-color="#3E2A2A" stop-opacity="0.57"/>
</linearGradient>
<linearGradient id="paint63_linear" x1="966.967" y1="807.967" x2="1073.03" y2="914.033" gradientUnits="userSpaceOnUse">
<stop stop-color="#00C2FF"/>
<stop offset="1" stop-color="#3E2A2A" stop-opacity="0.57"/>
</linearGradient>
<linearGradient id="paint64_linear" x1="-8.03301" y1="920.967" x2="98.033" y2="1027.03" gradientUnits="userSpaceOnUse">
<stop stop-color="#00C2FF"/>
<stop offset="1" stop-color="#3E2A2A" stop-opacity="0.57"/>
</linearGradient>
<linearGradient id="paint65_linear" x1="121.967" y1="920.967" x2="228.033" y2="1027.03" gradientUnits="userSpaceOnUse">
<stop stop-color="#00C2FF"/>
<stop offset="1" stop-color="#3E2A2A" stop-opacity="0.57"/>
</linearGradient>
<linearGradient id="paint66_linear" x1="251.967" y1="920.967" x2="358.033" y2="1027.03" gradientUnits="userSpaceOnUse">
<stop stop-color="#00C2FF"/>
<stop offset="1" stop-color="#3E2A2A" stop-opacity="0.57"/>
</linearGradient>
<linearGradient id="paint67_linear" x1="381.967" y1="920.967" x2="488.033" y2="1027.03" gradientUnits="userSpaceOnUse">
<stop stop-color="#00C2FF"/>
<stop offset="1" stop-color="#3E2A2A" stop-opacity="0.57"/>
</linearGradient>
<linearGradient id="paint68_linear" x1="511.967" y1="920.967" x2="618.033" y2="1027.03" gradientUnits="userSpaceOnUse">
<stop stop-color="#00C2FF"/>
<stop offset="1" stop-color="#3E2A2A" stop-opacity="0.57"/>
</linearGradient>
<linearGradient id="paint69_linear" x1="641.967" y1="920.967" x2="748.033" y2="1027.03" gradientUnits="userSpaceOnUse">
<stop stop-color="#00C2FF"/>
<stop offset="1" stop-color="#3E2A2A" stop-opacity="0.57"/>
</linearGradient>
<linearGradient id="paint70_linear" x1="771.967" y1="920.967" x2="878.033" y2="1027.03" gradientUnits="userSpaceOnUse">
<stop stop-color="#00C2FF"/>
<stop offset="1" stop-color="#3E2A2A" stop-opacity="0.57"/>
</linearGradient>
<linearGradient id="paint71_linear" x1="901.967" y1="920.967" x2="1008.03" y2="1027.03" gradientUnits="userSpaceOnUse">
<stop stop-color="#00C2FF"/>
<stop offset="1" stop-color="#3E2A2A" stop-opacity="0.57"/>
</linearGradient>
<linearGradient id="paint72_linear" x1="56.967" y1="1033.97" x2="163.033" y2="1140.03" gradientUnits="userSpaceOnUse">
<stop stop-color="#00C2FF"/>
<stop offset="1" stop-color="#3E2A2A" stop-opacity="0.57"/>
</linearGradient>
<linearGradient id="paint73_linear" x1="186.967" y1="1033.97" x2="293.033" y2="1140.03" gradientUnits="userSpaceOnUse">
<stop stop-color="#00C2FF"/>
<stop offset="1" stop-color="#3E2A2A" stop-opacity="0.57"/>
</linearGradient>
<linearGradient id="paint74_linear" x1="316.967" y1="1033.97" x2="423.033" y2="1140.03" gradientUnits="userSpaceOnUse">
<stop stop-color="#00C2FF"/>
<stop offset="1" stop-color="#3E2A2A" stop-opacity="0.57"/>
</linearGradient>
<linearGradient id="paint75_linear" x1="446.967" y1="1033.97" x2="553.033" y2="1140.03" gradientUnits="userSpaceOnUse">
<stop stop-color="#00C2FF"/>
<stop offset="1" stop-color="#3E2A2A" stop-opacity="0.57"/>
</linearGradient>
<linearGradient id="paint76_linear" x1="576.967" y1="1033.97" x2="683.033" y2="1140.03" gradientUnits="userSpaceOnUse">
<stop stop-color="#00C2FF"/>
<stop offset="1" stop-color="#3E2A2A" stop-opacity="0.57"/>
</linearGradient>
<linearGradient id="paint77_linear" x1="706.967" y1="1033.97" x2="813.033" y2="1140.03" gradientUnits="userSpaceOnUse">
<stop stop-color="#00C2FF"/>
<stop offset="1" stop-color="#3E2A2A" stop-opacity="0.57"/>
</linearGradient>
<linearGradient id="paint78_linear" x1="836.967" y1="1033.97" x2="943.033" y2="1140.03" gradientUnits="userSpaceOnUse">
<stop stop-color="#00C2FF"/>
<stop offset="1" stop-color="#3E2A2A" stop-opacity="0.57"/>
</linearGradient>
<linearGradient id="paint79_linear" x1="966.967" y1="1033.97" x2="1073.03" y2="1140.03" gradientUnits="userSpaceOnUse">
<stop stop-color="#00C2FF"/>
<stop offset="1" stop-color="#3E2A2A" stop-opacity="0.57"/>
</linearGradient>
<linearGradient id="paint80_linear" x1="-73.033" y1="129.967" x2="33.033" y2="236.033" gradientUnits="userSpaceOnUse">
<stop stop-color="#00C2FF"/>
<stop offset="1" stop-color="#3E2A2A" stop-opacity="0.57"/>
</linearGradient>
<linearGradient id="paint81_linear" x1="-73.033" y1="355.967" x2="33.033" y2="462.033" gradientUnits="userSpaceOnUse">
<stop stop-color="#00C2FF"/>
<stop offset="1" stop-color="#3E2A2A" stop-opacity="0.57"/>
</linearGradient>
<linearGradient id="paint82_linear" x1="-73.033" y1="581.967" x2="33.033" y2="688.033" gradientUnits="userSpaceOnUse">
<stop stop-color="#00C2FF"/>
<stop offset="1" stop-color="#3E2A2A" stop-opacity="0.57"/>
</linearGradient>
<linearGradient id="paint83_linear" x1="-73.033" y1="807.967" x2="33.033" y2="914.033" gradientUnits="userSpaceOnUse">
<stop stop-color="#00C2FF"/>
<stop offset="1" stop-color="#3E2A2A" stop-opacity="0.57"/>
</linearGradient>
<linearGradient id="paint84_linear" x1="-73.033" y1="-96.033" x2="33.033" y2="10.033" gradientUnits="userSpaceOnUse">
<stop stop-color="#00C2FF"/>
<stop offset="1" stop-color="#3E2A2A" stop-opacity="0.57"/>
</linearGradient>
<linearGradient id="paint85_linear" x1="56.967" y1="-96.033" x2="163.033" y2="10.033" gradientUnits="userSpaceOnUse">
<stop stop-color="#00C2FF"/>
<stop offset="1" stop-color="#3E2A2A" stop-opacity="0.57"/>
</linearGradient>
<linearGradient id="paint86_linear" x1="186.967" y1="-96.033" x2="293.033" y2="10.033" gradientUnits="userSpaceOnUse">
<stop stop-color="#00C2FF"/>
<stop offset="1" stop-color="#3E2A2A" stop-opacity="0.57"/>
</linearGradient>
<linearGradient id="paint87_linear" x1="316.967" y1="-96.033" x2="423.033" y2="10.033" gradientUnits="userSpaceOnUse">
<stop stop-color="#00C2FF"/>
<stop offset="1" stop-color="#3E2A2A" stop-opacity="0.57"/>
</linearGradient>
<linearGradient id="paint88_linear" x1="446.967" y1="-96.033" x2="553.033" y2="10.033" gradientUnits="userSpaceOnUse">
<stop stop-color="#00C2FF"/>
<stop offset="1" stop-color="#3E2A2A" stop-opacity="0.57"/>
</linearGradient>
<linearGradient id="paint89_linear" x1="576.967" y1="-96.033" x2="683.033" y2="10.033" gradientUnits="userSpaceOnUse">
<stop stop-color="#00C2FF"/>
<stop offset="1" stop-color="#3E2A2A" stop-opacity="0.57"/>
</linearGradient>
<linearGradient id="paint90_linear" x1="706.967" y1="-96.033" x2="813.033" y2="10.033" gradientUnits="userSpaceOnUse">
<stop stop-color="#00C2FF"/>
<stop offset="1" stop-color="#3E2A2A" stop-opacity="0.57"/>
</linearGradient>
<linearGradient id="paint91_linear" x1="836.967" y1="-96.033" x2="943.033" y2="10.033" gradientUnits="userSpaceOnUse">
<stop stop-color="#00C2FF"/>
<stop offset="1" stop-color="#3E2A2A" stop-opacity="0.57"/>
</linearGradient>
<linearGradient id="paint92_linear" x1="952.967" y1="-104.033" x2="1059.03" y2="2.03301" gradientUnits="userSpaceOnUse">
<stop stop-color="#00C2FF"/>
<stop offset="1" stop-color="#3E2A2A" stop-opacity="0.57"/>
</linearGradient>
<linearGradient id="paint93_linear" x1="33.033" y1="62.033" x2="139.099" y2="168.099" gradientUnits="userSpaceOnUse">
<stop stop-color="#00C2FF"/>
<stop offset="1" stop-color="#3E2A2A" stop-opacity="0.57"/>
</linearGradient>
<linearGradient id="paint94_linear" x1="163.033" y1="62.033" x2="269.099" y2="168.099" gradientUnits="userSpaceOnUse">
<stop stop-color="#00C2FF"/>
<stop offset="1" stop-color="#3E2A2A" stop-opacity="0.57"/>
</linearGradient>
<linearGradient id="paint95_linear" x1="293.033" y1="62.033" x2="399.099" y2="168.099" gradientUnits="userSpaceOnUse">
<stop stop-color="#00C2FF"/>
<stop offset="1" stop-color="#3E2A2A" stop-opacity="0.57"/>
</linearGradient>
<linearGradient id="paint96_linear" x1="423.033" y1="62.033" x2="529.099" y2="168.099" gradientUnits="userSpaceOnUse">
<stop stop-color="#00C2FF"/>
<stop offset="1" stop-color="#3E2A2A" stop-opacity="0.57"/>
</linearGradient>
<linearGradient id="paint97_linear" x1="553.033" y1="62.033" x2="659.099" y2="168.099" gradientUnits="userSpaceOnUse">
<stop stop-color="#00C2FF"/>
<stop offset="1" stop-color="#3E2A2A" stop-opacity="0.57"/>
</linearGradient>
<linearGradient id="paint98_linear" x1="683.033" y1="62.033" x2="789.099" y2="168.099" gradientUnits="userSpaceOnUse">
<stop stop-color="#00C2FF"/>
<stop offset="1" stop-color="#3E2A2A" stop-opacity="0.57"/>
</linearGradient>
<linearGradient id="paint99_linear" x1="813.033" y1="62.033" x2="919.099" y2="168.099" gradientUnits="userSpaceOnUse">
<stop stop-color="#00C2FF"/>
<stop offset="1" stop-color="#3E2A2A" stop-opacity="0.57"/>
</linearGradient>
<linearGradient id="paint100_linear" x1="943.033" y1="62.033" x2="1049.1" y2="168.099" gradientUnits="userSpaceOnUse">
<stop stop-color="#00C2FF"/>
<stop offset="1" stop-color="#3E2A2A" stop-opacity="0.57"/>
</linearGradient>
<linearGradient id="paint101_linear" x1="98.033" y1="175.033" x2="204.099" y2="281.099" gradientUnits="userSpaceOnUse">
<stop stop-color="#00C2FF"/>
<stop offset="1" stop-color="#3E2A2A" stop-opacity="0.57"/>
</linearGradient>
<linearGradient id="paint102_linear" x1="228.033" y1="175.033" x2="334.099" y2="281.099" gradientUnits="userSpaceOnUse">
<stop stop-color="#00C2FF"/>
<stop offset="1" stop-color="#3E2A2A" stop-opacity="0.57"/>
</linearGradient>
<linearGradient id="paint103_linear" x1="358.033" y1="175.033" x2="464.099" y2="281.099" gradientUnits="userSpaceOnUse">
<stop stop-color="#00C2FF"/>
<stop offset="1" stop-color="#3E2A2A" stop-opacity="0.57"/>
</linearGradient>
<linearGradient id="paint104_linear" x1="488.033" y1="175.033" x2="594.099" y2="281.099" gradientUnits="userSpaceOnUse">
<stop stop-color="#00C2FF"/>
<stop offset="1" stop-color="#3E2A2A" stop-opacity="0.57"/>
</linearGradient>
<linearGradient id="paint105_linear" x1="618.033" y1="175.033" x2="724.099" y2="281.099" gradientUnits="userSpaceOnUse">
<stop stop-color="#00C2FF"/>
<stop offset="1" stop-color="#3E2A2A" stop-opacity="0.57"/>
</linearGradient>
<linearGradient id="paint106_linear" x1="748.033" y1="175.033" x2="854.099" y2="281.099" gradientUnits="userSpaceOnUse">
<stop stop-color="#00C2FF"/>
<stop offset="1" stop-color="#3E2A2A" stop-opacity="0.57"/>
</linearGradient>
<linearGradient id="paint107_linear" x1="878.033" y1="175.033" x2="984.099" y2="281.099" gradientUnits="userSpaceOnUse">
<stop stop-color="#00C2FF"/>
<stop offset="1" stop-color="#3E2A2A" stop-opacity="0.57"/>
</linearGradient>
<linearGradient id="paint108_linear" x1="1008.03" y1="175.033" x2="1114.1" y2="281.099" gradientUnits="userSpaceOnUse">
<stop stop-color="#00C2FF"/>
<stop offset="1" stop-color="#3E2A2A" stop-opacity="0.57"/>
</linearGradient>
<linearGradient id="paint109_linear" x1="33.033" y1="288.033" x2="139.099" y2="394.099" gradientUnits="userSpaceOnUse">
<stop stop-color="#00C2FF"/>
<stop offset="1" stop-color="#3E2A2A" stop-opacity="0.57"/>
</linearGradient>
<linearGradient id="paint110_linear" x1="163.033" y1="288.033" x2="269.099" y2="394.099" gradientUnits="userSpaceOnUse">
<stop stop-color="#00C2FF"/>
<stop offset="1" stop-color="#3E2A2A" stop-opacity="0.57"/>
</linearGradient>
<linearGradient id="paint111_linear" x1="293.033" y1="288.033" x2="399.099" y2="394.099" gradientUnits="userSpaceOnUse">
<stop stop-color="#00C2FF"/>
<stop offset="1" stop-color="#3E2A2A" stop-opacity="0.57"/>
</linearGradient>
<linearGradient id="paint112_linear" x1="423.033" y1="288.033" x2="529.099" y2="394.099" gradientUnits="userSpaceOnUse">
<stop stop-color="#00C2FF"/>
<stop offset="1" stop-color="#3E2A2A" stop-opacity="0.57"/>
</linearGradient>
<linearGradient id="paint113_linear" x1="553.033" y1="288.033" x2="659.099" y2="394.099" gradientUnits="userSpaceOnUse">
<stop stop-color="#00C2FF"/>
<stop offset="1" stop-color="#3E2A2A" stop-opacity="0.57"/>
</linearGradient>
<linearGradient id="paint114_linear" x1="683.033" y1="288.033" x2="789.099" y2="394.099" gradientUnits="userSpaceOnUse">
<stop stop-color="#00C2FF"/>
<stop offset="1" stop-color="#3E2A2A" stop-opacity="0.57"/>
</linearGradient>
<linearGradient id="paint115_linear" x1="813.033" y1="288.033" x2="919.099" y2="394.099" gradientUnits="userSpaceOnUse">
<stop stop-color="#00C2FF"/>
<stop offset="1" stop-color="#3E2A2A" stop-opacity="0.57"/>
</linearGradient>
<linearGradient id="paint116_linear" x1="943.033" y1="288.033" x2="1049.1" y2="394.099" gradientUnits="userSpaceOnUse">
<stop stop-color="#00C2FF"/>
<stop offset="1" stop-color="#3E2A2A" stop-opacity="0.57"/>
</linearGradient>
<linearGradient id="paint117_linear" x1="98.033" y1="401.033" x2="204.099" y2="507.099" gradientUnits="userSpaceOnUse">
<stop stop-color="#00C2FF"/>
<stop offset="1" stop-color="#3E2A2A" stop-opacity="0.57"/>
</linearGradient>
<linearGradient id="paint118_linear" x1="228.033" y1="401.033" x2="334.099" y2="507.099" gradientUnits="userSpaceOnUse">
<stop stop-color="#00C2FF"/>
<stop offset="1" stop-color="#3E2A2A" stop-opacity="0.57"/>
</linearGradient>
<linearGradient id="paint119_linear" x1="358.033" y1="401.033" x2="464.099" y2="507.099" gradientUnits="userSpaceOnUse">
<stop stop-color="#00C2FF"/>
<stop offset="1" stop-color="#3E2A2A" stop-opacity="0.57"/>
</linearGradient>
<linearGradient id="paint120_linear" x1="488.033" y1="401.033" x2="594.099" y2="507.099" gradientUnits="userSpaceOnUse">
<stop stop-color="#00C2FF"/>
<stop offset="1" stop-color="#3E2A2A" stop-opacity="0.57"/>
</linearGradient>
<linearGradient id="paint121_linear" x1="618.033" y1="401.033" x2="724.099" y2="507.099" gradientUnits="userSpaceOnUse">
<stop stop-color="#00C2FF"/>
<stop offset="1" stop-color="#3E2A2A" stop-opacity="0.57"/>
</linearGradient>
<linearGradient id="paint122_linear" x1="748.033" y1="401.033" x2="854.099" y2="507.099" gradientUnits="userSpaceOnUse">
<stop stop-color="#00C2FF"/>
<stop offset="1" stop-color="#3E2A2A" stop-opacity="0.57"/>
</linearGradient>
<linearGradient id="paint123_linear" x1="878.033" y1="401.033" x2="984.099" y2="507.099" gradientUnits="userSpaceOnUse">
<stop stop-color="#00C2FF"/>
<stop offset="1" stop-color="#3E2A2A" stop-opacity="0.57"/>
</linearGradient>
<linearGradient id="paint124_linear" x1="1008.03" y1="401.033" x2="1114.1" y2="507.099" gradientUnits="userSpaceOnUse">
<stop stop-color="#00C2FF"/>
<stop offset="1" stop-color="#3E2A2A" stop-opacity="0.57"/>
</linearGradient>
<linearGradient id="paint125_linear" x1="33.033" y1="514.033" x2="139.099" y2="620.099" gradientUnits="userSpaceOnUse">
<stop stop-color="#00C2FF"/>
<stop offset="1" stop-color="#3E2A2A" stop-opacity="0.57"/>
</linearGradient>
<linearGradient id="paint126_linear" x1="163.033" y1="514.033" x2="269.099" y2="620.099" gradientUnits="userSpaceOnUse">
<stop stop-color="#00C2FF"/>
<stop offset="1" stop-color="#3E2A2A" stop-opacity="0.57"/>
</linearGradient>
<linearGradient id="paint127_linear" x1="293.033" y1="514.033" x2="399.099" y2="620.099" gradientUnits="userSpaceOnUse">
<stop stop-color="#00C2FF"/>
<stop offset="1" stop-color="#3E2A2A" stop-opacity="0.57"/>
</linearGradient>
<linearGradient id="paint128_linear" x1="423.033" y1="514.033" x2="529.099" y2="620.099" gradientUnits="userSpaceOnUse">
<stop stop-color="#00C2FF"/>
<stop offset="1" stop-color="#3E2A2A" stop-opacity="0.57"/>
</linearGradient>
<linearGradient id="paint129_linear" x1="553.033" y1="514.033" x2="659.099" y2="620.099" gradientUnits="userSpaceOnUse">
<stop stop-color="#00C2FF"/>
<stop offset="1" stop-color="#3E2A2A" stop-opacity="0.57"/>
</linearGradient>
<linearGradient id="paint130_linear" x1="683.033" y1="514.033" x2="789.099" y2="620.099" gradientUnits="userSpaceOnUse">
<stop stop-color="#00C2FF"/>
<stop offset="1" stop-color="#3E2A2A" stop-opacity="0.57"/>
</linearGradient>
<linearGradient id="paint131_linear" x1="813.033" y1="514.033" x2="919.099" y2="620.099" gradientUnits="userSpaceOnUse">
<stop stop-color="#00C2FF"/>
<stop offset="1" stop-color="#3E2A2A" stop-opacity="0.57"/>
</linearGradient>
<linearGradient id="paint132_linear" x1="943.033" y1="514.033" x2="1049.1" y2="620.099" gradientUnits="userSpaceOnUse">
<stop stop-color="#00C2FF"/>
<stop offset="1" stop-color="#3E2A2A" stop-opacity="0.57"/>
</linearGradient>
<linearGradient id="paint133_linear" x1="98.033" y1="627.033" x2="204.099" y2="733.099" gradientUnits="userSpaceOnUse">
<stop stop-color="#00C2FF"/>
<stop offset="1" stop-color="#3E2A2A" stop-opacity="0.57"/>
</linearGradient>
<linearGradient id="paint134_linear" x1="228.033" y1="627.033" x2="334.099" y2="733.099" gradientUnits="userSpaceOnUse">
<stop stop-color="#00C2FF"/>
<stop offset="1" stop-color="#3E2A2A" stop-opacity="0.57"/>
</linearGradient>
<linearGradient id="paint135_linear" x1="358.033" y1="627.033" x2="464.099" y2="733.099" gradientUnits="userSpaceOnUse">
<stop stop-color="#00C2FF"/>
<stop offset="1" stop-color="#3E2A2A" stop-opacity="0.57"/>
</linearGradient>
<linearGradient id="paint136_linear" x1="488.033" y1="627.033" x2="594.099" y2="733.099" gradientUnits="userSpaceOnUse">
<stop stop-color="#00C2FF"/>
<stop offset="1" stop-color="#3E2A2A" stop-opacity="0.57"/>
</linearGradient>
<linearGradient id="paint137_linear" x1="618.033" y1="627.033" x2="724.099" y2="733.099" gradientUnits="userSpaceOnUse">
<stop stop-color="#00C2FF"/>
<stop offset="1" stop-color="#3E2A2A" stop-opacity="0.57"/>
</linearGradient>
<linearGradient id="paint138_linear" x1="748.033" y1="627.033" x2="854.099" y2="733.099" gradientUnits="userSpaceOnUse">
<stop stop-color="#00C2FF"/>
<stop offset="1" stop-color="#3E2A2A" stop-opacity="0.57"/>
</linearGradient>
<linearGradient id="paint139_linear" x1="878.033" y1="627.033" x2="984.099" y2="733.099" gradientUnits="userSpaceOnUse">
<stop stop-color="#00C2FF"/>
<stop offset="1" stop-color="#3E2A2A" stop-opacity="0.57"/>
</linearGradient>
<linearGradient id="paint140_linear" x1="1008.03" y1="627.033" x2="1114.1" y2="733.099" gradientUnits="userSpaceOnUse">
<stop stop-color="#00C2FF"/>
<stop offset="1" stop-color="#3E2A2A" stop-opacity="0.57"/>
</linearGradient>
<linearGradient id="paint141_linear" x1="33.033" y1="740.033" x2="139.099" y2="846.099" gradientUnits="userSpaceOnUse">
<stop stop-color="#00C2FF"/>
<stop offset="1" stop-color="#3E2A2A" stop-opacity="0.57"/>
</linearGradient>
<linearGradient id="paint142_linear" x1="163.033" y1="740.033" x2="269.099" y2="846.099" gradientUnits="userSpaceOnUse">
<stop stop-color="#00C2FF"/>
<stop offset="1" stop-color="#3E2A2A" stop-opacity="0.57"/>
</linearGradient>
<linearGradient id="paint143_linear" x1="293.033" y1="740.033" x2="399.099" y2="846.099" gradientUnits="userSpaceOnUse">
<stop stop-color="#00C2FF"/>
<stop offset="1" stop-color="#3E2A2A" stop-opacity="0.57"/>
</linearGradient>
<linearGradient id="paint144_linear" x1="423.033" y1="740.033" x2="529.099" y2="846.099" gradientUnits="userSpaceOnUse">
<stop stop-color="#00C2FF"/>
<stop offset="1" stop-color="#3E2A2A" stop-opacity="0.57"/>
</linearGradient>
<linearGradient id="paint145_linear" x1="553.033" y1="740.033" x2="659.099" y2="846.099" gradientUnits="userSpaceOnUse">
<stop stop-color="#00C2FF"/>
<stop offset="1" stop-color="#3E2A2A" stop-opacity="0.57"/>
</linearGradient>
<linearGradient id="paint146_linear" x1="683.033" y1="740.033" x2="789.099" y2="846.099" gradientUnits="userSpaceOnUse">
<stop stop-color="#00C2FF"/>
<stop offset="1" stop-color="#3E2A2A" stop-opacity="0.57"/>
</linearGradient>
<linearGradient id="paint147_linear" x1="813.033" y1="740.033" x2="919.099" y2="846.099" gradientUnits="userSpaceOnUse">
<stop stop-color="#00C2FF"/>
<stop offset="1" stop-color="#3E2A2A" stop-opacity="0.57"/>
</linearGradient>
<linearGradient id="paint148_linear" x1="943.033" y1="740.033" x2="1049.1" y2="846.099" gradientUnits="userSpaceOnUse">
<stop stop-color="#00C2FF"/>
<stop offset="1" stop-color="#3E2A2A" stop-opacity="0.57"/>
</linearGradient>
<linearGradient id="paint149_linear" x1="98.033" y1="853.033" x2="204.099" y2="959.099" gradientUnits="userSpaceOnUse">
<stop stop-color="#00C2FF"/>
<stop offset="1" stop-color="#3E2A2A" stop-opacity="0.57"/>
</linearGradient>
<linearGradient id="paint150_linear" x1="228.033" y1="853.033" x2="334.099" y2="959.099" gradientUnits="userSpaceOnUse">
<stop stop-color="#00C2FF"/>
<stop offset="1" stop-color="#3E2A2A" stop-opacity="0.57"/>
</linearGradient>
<linearGradient id="paint151_linear" x1="358.033" y1="853.033" x2="464.099" y2="959.099" gradientUnits="userSpaceOnUse">
<stop stop-color="#00C2FF"/>
<stop offset="1" stop-color="#3E2A2A" stop-opacity="0.57"/>
</linearGradient>
<linearGradient id="paint152_linear" x1="488.033" y1="853.033" x2="594.099" y2="959.099" gradientUnits="userSpaceOnUse">
<stop stop-color="#00C2FF"/>
<stop offset="1" stop-color="#3E2A2A" stop-opacity="0.57"/>
</linearGradient>
<linearGradient id="paint153_linear" x1="618.033" y1="853.033" x2="724.099" y2="959.099" gradientUnits="userSpaceOnUse">
<stop stop-color="#00C2FF"/>
<stop offset="1" stop-color="#3E2A2A" stop-opacity="0.57"/>
</linearGradient>
<linearGradient id="paint154_linear" x1="748.033" y1="853.033" x2="854.099" y2="959.099" gradientUnits="userSpaceOnUse">
<stop stop-color="#00C2FF"/>
<stop offset="1" stop-color="#3E2A2A" stop-opacity="0.57"/>
</linearGradient>
<linearGradient id="paint155_linear" x1="878.033" y1="853.033" x2="984.099" y2="959.099" gradientUnits="userSpaceOnUse">
<stop stop-color="#00C2FF"/>
<stop offset="1" stop-color="#3E2A2A" stop-opacity="0.57"/>
</linearGradient>
<linearGradient id="paint156_linear" x1="1008.03" y1="853.033" x2="1114.1" y2="959.099" gradientUnits="userSpaceOnUse">
<stop stop-color="#00C2FF"/>
<stop offset="1" stop-color="#3E2A2A" stop-opacity="0.57"/>
</linearGradient>
<linearGradient id="paint157_linear" x1="33.033" y1="966.033" x2="139.099" y2="1072.1" gradientUnits="userSpaceOnUse">
<stop stop-color="#00C2FF"/>
<stop offset="1" stop-color="#3E2A2A" stop-opacity="0.57"/>
</linearGradient>
<linearGradient id="paint158_linear" x1="163.033" y1="966.033" x2="269.099" y2="1072.1" gradientUnits="userSpaceOnUse">
<stop stop-color="#00C2FF"/>
<stop offset="1" stop-color="#3E2A2A" stop-opacity="0.57"/>
</linearGradient>
<linearGradient id="paint159_linear" x1="293.033" y1="966.033" x2="399.099" y2="1072.1" gradientUnits="userSpaceOnUse">
<stop stop-color="#00C2FF"/>
<stop offset="1" stop-color="#3E2A2A" stop-opacity="0.57"/>
</linearGradient>
<linearGradient id="paint160_linear" x1="423.033" y1="966.033" x2="529.099" y2="1072.1" gradientUnits="userSpaceOnUse">
<stop stop-color="#00C2FF"/>
<stop offset="1" stop-color="#3E2A2A" stop-opacity="0.57"/>
</linearGradient>
<linearGradient id="paint161_linear" x1="553.033" y1="966.033" x2="659.099" y2="1072.1" gradientUnits="userSpaceOnUse">
<stop stop-color="#00C2FF"/>
<stop offset="1" stop-color="#3E2A2A" stop-opacity="0.57"/>
</linearGradient>
<linearGradient id="paint162_linear" x1="683.033" y1="966.033" x2="789.099" y2="1072.1" gradientUnits="userSpaceOnUse">
<stop stop-color="#00C2FF"/>
<stop offset="1" stop-color="#3E2A2A" stop-opacity="0.57"/>
</linearGradient>
<linearGradient id="paint163_linear" x1="813.033" y1="966.033" x2="919.099" y2="1072.1" gradientUnits="userSpaceOnUse">
<stop stop-color="#00C2FF"/>
<stop offset="1" stop-color="#3E2A2A" stop-opacity="0.57"/>
</linearGradient>
<linearGradient id="paint164_linear" x1="943.033" y1="966.033" x2="1049.1" y2="1072.1" gradientUnits="userSpaceOnUse">
<stop stop-color="#00C2FF"/>
<stop offset="1" stop-color="#3E2A2A" stop-opacity="0.57"/>
</linearGradient>
<linearGradient id="paint165_linear" x1="-31.967" y1="175.033" x2="74.099" y2="281.099" gradientUnits="userSpaceOnUse">
<stop stop-color="#00C2FF"/>
<stop offset="1" stop-color="#3E2A2A" stop-opacity="0.57"/>
</linearGradient>
<linearGradient id="paint166_linear" x1="-31.967" y1="401.033" x2="74.099" y2="507.099" gradientUnits="userSpaceOnUse">
<stop stop-color="#00C2FF"/>
<stop offset="1" stop-color="#3E2A2A" stop-opacity="0.57"/>
</linearGradient>
<linearGradient id="paint167_linear" x1="-31.967" y1="627.033" x2="74.099" y2="733.099" gradientUnits="userSpaceOnUse">
<stop stop-color="#00C2FF"/>
<stop offset="1" stop-color="#3E2A2A" stop-opacity="0.57"/>
</linearGradient>
<linearGradient id="paint168_linear" x1="-31.967" y1="853.033" x2="74.099" y2="959.099" gradientUnits="userSpaceOnUse">
<stop stop-color="#00C2FF"/>
<stop offset="1" stop-color="#3E2A2A" stop-opacity="0.57"/>
</linearGradient>
<linearGradient id="paint169_linear" x1="-31.967" y1="-50.967" x2="74.099" y2="55.099" gradientUnits="userSpaceOnUse">
<stop stop-color="#00C2FF"/>
<stop offset="1" stop-color="#3E2A2A" stop-opacity="0.57"/>
</linearGradient>
<linearGradient id="paint170_linear" x1="98.033" y1="-50.967" x2="204.099" y2="55.099" gradientUnits="userSpaceOnUse">
<stop stop-color="#00C2FF"/>
<stop offset="1" stop-color="#3E2A2A" stop-opacity="0.57"/>
</linearGradient>
<linearGradient id="paint171_linear" x1="228.033" y1="-50.967" x2="334.099" y2="55.099" gradientUnits="userSpaceOnUse">
<stop stop-color="#00C2FF"/>
<stop offset="1" stop-color="#3E2A2A" stop-opacity="0.57"/>
</linearGradient>
<linearGradient id="paint172_linear" x1="358.033" y1="-50.967" x2="464.099" y2="55.099" gradientUnits="userSpaceOnUse">
<stop stop-color="#00C2FF"/>
<stop offset="1" stop-color="#3E2A2A" stop-opacity="0.57"/>
</linearGradient>
<linearGradient id="paint173_linear" x1="488.033" y1="-50.967" x2="594.099" y2="55.099" gradientUnits="userSpaceOnUse">
<stop stop-color="#00C2FF"/>
<stop offset="1" stop-color="#3E2A2A" stop-opacity="0.57"/>
</linearGradient>
<linearGradient id="paint174_linear" x1="618.033" y1="-50.967" x2="724.099" y2="55.099" gradientUnits="userSpaceOnUse">
<stop stop-color="#00C2FF"/>
<stop offset="1" stop-color="#3E2A2A" stop-opacity="0.57"/>
</linearGradient>
<linearGradient id="paint175_linear" x1="748.033" y1="-50.967" x2="854.099" y2="55.099" gradientUnits="userSpaceOnUse">
<stop stop-color="#00C2FF"/>
<stop offset="1" stop-color="#3E2A2A" stop-opacity="0.57"/>
</linearGradient>
<linearGradient id="paint176_linear" x1="878.033" y1="-50.967" x2="984.099" y2="55.099" gradientUnits="userSpaceOnUse">
<stop stop-color="#00C2FF"/>
<stop offset="1" stop-color="#3E2A2A" stop-opacity="0.57"/>
</linearGradient>
<linearGradient id="paint177_linear" x1="994.033" y1="-58.967" x2="1100.1" y2="47.099" gradientUnits="userSpaceOnUse">
<stop stop-color="#00C2FF"/>
<stop offset="1" stop-color="#3E2A2A" stop-opacity="0.57"/>
</linearGradient>
<linearGradient id="paint178_linear" x1="499.5" y1="350" x2="499.5" y2="620" gradientUnits="userSpaceOnUse">
<stop offset="0.0002" stop-color="white"/>
<stop offset="0.9999" stop-color="#B6B6B6"/>
<stop offset="1" stop-color="#3E2A2A" stop-opacity="0.98"/>
</linearGradient>
<clipPath id="clip0">
<rect width="1000" height="1000" fill="white"/>
</clipPath>
</defs>
</svg>
